# xmcd
#
# Track frame offsets:
#	150
#	14757
#	28107
#	42352
#	56095
#	70462
#	87795
#	100785
#	114547
#	127977
#	141200
#	154892
#	167235
#	191172
#	209125
#	222942
#	234790
#	252075
#	265235
#	269990
#	284685
#	296827
#	309205
#	320015
#
# Disc length: 4439 seconds
#
# Revision: 0
# Processed by: cddbd v1.5.2PL0 Copyright (c) Steve Scherf et al.
# Submitted via: EasyCDDAExtractor 11.0.3.1
#
DISCID=81115518
DTITLE=Various Artist - Roosevelt's Blues
DYEAR=1900
DGENRE=Blues
TTITLE0=Walter Roland - Red Cross Blues
TTITLE1=Jack Kelly - President Blues (Resident Roosevelt Blues)
TTITLE2=Joe Pullum - Cwa Blues
TTITLE3=Rev J.M. Gates - No Bread Line In Heaven
TTITLE4=Mississippi Sheiks - I Can't Go Wrong
TTITLE5=Annie Brewer - Roosevelt Blues
TTITLE6=Will 'casey Bill' Weldon - Casey Bill's New W.P.A.
TTITLE7=A Memphis Minnie - Sylvester And His Mule Blues
TTITLE8=Rev J.M. Gates - President Roosevelts Is Everybody's Friend
TTITLE9=Jimmie Gordon - Don't Take Away My P.W.A.
TTITLE10=Mississippi Sheiks - Sales Tax
TTITLE11=Rev R.H. Taylor - The Bonus Have Found The Stingy Mens Out
TTITLE12=Huddie 'leadbelly' Ledbetter - The Scottsboro Boys
TTITLE13=Huddie 'leadbelly' Ledbetter - Dear Mr President and President Roosevel
TTITLE13=t
TTITLE14=Peter J 'doctor' Clayton - Pearl Harbor Blues
TTITLE15=Lucius 'lucky' Millinder - We're Gonna Have To Slap The Dirty Little 
TTITLE15=Jap
TTITLE16=Buster 'buz' Ezell - Soldier Boy Blues
TTITLE17=Peter J 'doctor' Clayton - '41 Blues
TTITLE18=Unidentiefied Man - Hitler Toast
TTITLE19=Louis Jordan - You Can't  Get That No More
TTITLE20=James 'jack Of All Trades' McCain - Good Mr. Roosevelt
TTITLE21='big' Joe Williams - His Spirit Lives On
TTITLE22=Otis Jackson - Tell Me Why Uou Like Roosevelt Part 1
TTITLE23=Otis Jackson - Tell Me Why Uou Like Roosevelt Part 2
EXTD=
EXTT0=
EXTT1=
EXTT2=
EXTT3=
EXTT4=
EXTT5=
EXTT6=
EXTT7=
EXTT8=
EXTT9=
EXTT10=
EXTT11=
EXTT12=
EXTT13=
EXTT14=
EXTT15=
EXTT16=
EXTT17=
EXTT18=
EXTT19=
EXTT20=
EXTT21=
EXTT22=
EXTT23=
PLAYORDER=
